<svg width="136" height="40" viewBox="0 0 136 40" fill="none" xmlns="http://www.w3.org/2000/svg">
<path d="M8.91016 34.2402C9.59375 34.2728 10.1471 34.3053 10.5703 34.3379C11.026 34.3704 11.4655 34.3867 11.8887 34.3867C11.9538 34.4518 12.0026 34.5495 12.0352 34.6797C12.1003 34.8099 12.1816 34.9076 12.2793 34.9727C12.5397 35.4609 12.5885 35.8353 12.4258 36.0957C12.2956 36.3236 12.1165 36.6003 11.8887 36.9258C11.791 37.0885 11.7096 37.2188 11.6445 37.3164C11.5794 37.4141 11.5469 37.5768 11.5469 37.8047C11.3516 37.8047 11.1888 37.8861 11.0586 38.0488C10.9284 38.2116 10.7493 38.2116 10.5215 38.0488C10.2611 38.1139 10.0169 38.1465 9.78906 38.1465C9.59375 38.1465 9.41471 38.1628 9.25195 38.1953C8.86133 38.2604 8.66602 38.2767 8.66602 38.2441C8.66602 38.2441 8.63346 38.2441 8.56836 38.2441C8.11263 38.179 7.67318 38.1465 7.25 38.1465C6.85938 38.179 6.46875 38.2441 6.07812 38.3418C5.6224 38.2116 5.3457 38.1465 5.24805 38.1465C5.18294 38.179 5.13411 38.2116 5.10156 38.2441C5.06901 38.2767 5.03646 38.3255 5.00391 38.3906C4.97135 38.4557 4.88997 38.5208 4.75977 38.5859C3.91341 38.7161 3.18099 38.9603 2.5625 39.3184C2.39974 39.2858 2.18815 39.3346 1.92773 39.4648C1.69987 39.4323 1.52083 39.4648 1.39062 39.5625C1.29297 39.6927 1.14648 39.7415 0.951172 39.709C0.788411 39.6113 0.658203 39.3997 0.560547 39.0742C0.462891 38.7487 0.479167 38.4883 0.609375 38.293C0.479167 37.707 0.479167 37.2676 0.609375 36.9746C0.707031 36.6491 0.886068 36.291 1.14648 35.9004C1.63477 35.4447 2.12305 35.2168 2.61133 35.2168C3.09961 35.2168 3.49023 35.1191 3.7832 34.9238C4.40169 33.8496 4.85742 32.873 5.15039 31.9941C5.44336 31.1152 5.76888 30.1549 6.12695 29.1133C6.15951 28.918 6.22461 28.7552 6.32227 28.625C6.41992 28.4622 6.5013 28.2995 6.56641 28.1367C6.72917 27.7786 6.8431 27.4531 6.9082 27.1602C6.97331 26.8672 7.08724 26.6068 7.25 26.3789C7.28255 26.1836 7.34766 25.9557 7.44531 25.6953C7.54297 25.4023 7.64062 25.1094 7.73828 24.8164C7.83594 24.5234 7.93359 24.2467 8.03125 23.9863C8.12891 23.6934 8.22656 23.4655 8.32422 23.3027C8.55208 23.14 8.71484 23.026 8.8125 22.9609C8.91016 22.8958 8.97526 22.8145 9.00781 22.7168C9.07292 22.6191 9.13802 22.5378 9.20312 22.4727C9.36589 22.1146 9.46354 21.8542 9.49609 21.6914C9.5612 21.4961 9.67513 21.3333 9.83789 21.2031C10.0983 20.5521 10.375 20.0312 10.668 19.6406C10.7656 19.4128 10.847 19.2012 10.9121 19.0059C11.0098 18.8105 11.1237 18.6315 11.2539 18.4688C11.2539 18.306 11.2865 18.2083 11.3516 18.1758C11.4167 18.1107 11.4329 17.9967 11.4004 17.834C11.5632 17.6061 11.6934 17.3783 11.791 17.1504C11.8887 16.89 12.0026 16.6296 12.1328 16.3691C12.3932 15.6855 12.6211 15.1159 12.8164 14.6602C13.0117 14.1719 13.2396 13.6999 13.5 13.2441C13.6628 12.9512 13.7767 12.6745 13.8418 12.4141C13.9069 12.1536 14.0208 11.9258 14.1836 11.7305C14.1836 11.5677 14.1999 11.4212 14.2324 11.291C14.2975 11.1608 14.3626 11.0143 14.4277 10.8516C14.4928 10.7539 14.5579 10.64 14.623 10.5098C14.7207 10.3796 14.8021 10.2819 14.8672 10.2168C15.1927 9.56576 15.502 9.01237 15.7949 8.55664C16.0879 8.06836 16.3483 7.54753 16.5762 6.99414C16.2832 7.02669 16.0391 7.10807 15.8438 7.23828C15.681 7.36849 15.4694 7.4987 15.209 7.62891C14.9811 7.82422 14.7044 7.98698 14.3789 8.11719C14.1185 8.27995 13.8581 8.45898 13.5977 8.6543C13.3698 8.81706 13.1257 8.94727 12.8652 9.04492C12.7025 9.11003 12.5072 9.14258 12.2793 9.14258C12.0514 9.11003 11.8724 9.15885 11.7422 9.28906C11.2539 9.35417 10.8958 9.22396 10.668 8.89844C10.4727 8.54036 10.4564 8.18229 10.6191 7.82422C10.6517 7.72656 10.6842 7.64518 10.7168 7.58008C10.7819 7.48242 10.8307 7.38477 10.8633 7.28711C10.8958 7.18945 10.9121 7.07552 10.9121 6.94531C10.9447 6.8151 10.9935 6.71745 11.0586 6.65234C11.1237 6.52214 11.2051 6.44076 11.3027 6.4082C11.4004 6.3431 11.4818 6.26172 11.5469 6.16406C12.1003 6.0013 12.4909 5.83854 12.7188 5.67578C12.9466 5.51302 13.1582 5.35026 13.3535 5.1875C13.7116 5.02474 14.0534 4.86198 14.3789 4.69922C14.7044 4.53646 15.0299 4.3737 15.3555 4.21094C15.7786 3.95052 16.153 3.70638 16.4785 3.47852C16.8366 3.2181 17.1784 2.99023 17.5039 2.79492C17.6016 2.53451 17.7643 2.33919 17.9922 2.20898C18.2201 2.07878 18.4479 1.93229 18.6758 1.76953C18.7734 1.70443 18.8874 1.62305 19.0176 1.52539C19.1478 1.42773 19.2292 1.3138 19.2617 1.18359C19.3919 1.15104 19.4733 1.10221 19.5059 1.03711C19.571 0.939453 19.6686 0.923177 19.7988 0.988281C20.0918 1.08594 20.2708 1.15104 20.3359 1.18359C20.4336 1.18359 20.515 1.18359 20.5801 1.18359C20.6777 1.21615 20.7103 1.26497 20.6777 1.33008C20.6777 1.39518 20.6452 1.47656 20.5801 1.57422C20.5475 1.63932 20.515 1.7207 20.4824 1.81836C20.4499 1.88346 20.4824 1.96484 20.5801 2.0625C20.6452 2.1276 20.7917 2.20898 21.0195 2.30664C21.2474 2.4043 21.3939 2.48568 21.459 2.55078C21.5566 2.8763 21.6055 3.08789 21.6055 3.18555C21.638 3.25065 21.6868 3.33203 21.752 3.42969C21.7845 3.59245 21.7845 3.77148 21.752 3.9668C21.7194 4.16211 21.7194 4.35742 21.752 4.55273C21.7845 4.87826 21.752 5.22005 21.6543 5.57812C21.6217 5.70833 21.5892 5.82227 21.5566 5.91992C21.5566 5.98503 21.5566 6.06641 21.5566 6.16406C21.3288 6.97786 21.0521 7.69401 20.7266 8.3125C20.401 8.93099 20.0918 9.54948 19.7988 10.168C19.7337 10.3307 19.6686 10.4772 19.6035 10.6074C19.5384 10.7376 19.457 10.8678 19.3594 10.998C19.1966 11.2585 19.0339 11.5189 18.8711 11.7793C18.7409 12.0397 18.5944 12.3001 18.4316 12.5605C18.2038 13.179 17.9271 13.7812 17.6016 14.3672C17.3086 14.9206 17.0156 15.474 16.7227 16.0273C16.2995 16.6784 15.9251 17.3457 15.5996 18.0293C15.3066 18.7129 14.9811 19.3802 14.623 20.0312C14.2324 20.5846 13.8906 21.0729 13.5977 21.4961C13.3047 21.8867 12.9954 22.3099 12.6699 22.7656C12.6048 23.5469 12.4258 24.263 12.1328 24.9141C11.8724 25.5651 11.6283 26.2324 11.4004 26.916C11.1725 27.6322 10.9121 28.3158 10.6191 28.9668C10.3262 29.6178 10.082 30.3177 9.88672 31.0664C9.6263 31.7174 9.41471 32.3197 9.25195 32.873C9.12174 33.3939 9.00781 33.8496 8.91016 34.2402ZM45.1406 4.01562C45.3034 4.50391 45.4173 5.05729 45.4824 5.67578C45.5475 6.26172 45.4987 6.83138 45.3359 7.38477C45.2708 7.87305 45.2057 8.2474 45.1406 8.50781C45.1081 8.76823 45.0592 9.02865 44.9941 9.28906C44.7337 9.61458 44.5221 9.9401 44.3594 10.2656C44.2292 10.5586 44.0339 10.8353 43.7734 11.0957C43.4479 11.4538 43.2038 11.7793 43.041 12.0723C42.8783 12.3327 42.6667 12.5931 42.4062 12.8535C42.0807 13.179 41.8529 13.4069 41.7227 13.5371C41.625 13.6348 41.5111 13.7324 41.3809 13.8301C41.1204 14.1556 40.9251 14.3509 40.7949 14.416C40.6973 14.4486 40.5996 14.4974 40.502 14.5625C40.4368 14.6276 40.3717 14.6927 40.3066 14.7578C40.2415 14.8229 40.1764 14.888 40.1113 14.9531C39.9486 15.0508 39.7858 15.1322 39.623 15.1973C39.1022 15.7181 38.5651 16.2227 38.0117 16.7109C37.4909 17.1992 36.9375 17.6712 36.3516 18.127C35.9609 18.485 35.6191 18.7292 35.3262 18.8594C35.0658 18.9896 34.8542 19.1686 34.6914 19.3965C35.3099 19.4616 35.9609 19.3802 36.6445 19.1523C37.1979 19.1198 37.735 19.1198 38.2559 19.1523C38.8092 19.1849 39.2812 19.3477 39.6719 19.6406C39.9323 19.901 40.0951 20.0475 40.1602 20.0801C40.2253 20.0801 40.2904 20.0964 40.3555 20.1289C40.4206 20.2266 40.5182 20.3405 40.6484 20.4707C40.8112 20.6009 40.974 20.7311 41.1367 20.8613C41.3646 21.0566 41.5762 21.252 41.7715 21.4473C41.9993 21.6426 42.1458 21.8704 42.2109 22.1309C42.2435 22.2285 42.2435 22.3424 42.2109 22.4727C42.2109 22.5703 42.2109 22.6842 42.2109 22.8145C42.276 22.9772 42.3249 23.1562 42.3574 23.3516C42.4225 23.5469 42.4714 23.7422 42.5039 23.9375C42.569 24.3932 42.569 24.849 42.5039 25.3047C42.4714 25.7279 42.4225 26.1673 42.3574 26.623C42.3249 26.7858 42.3086 26.9486 42.3086 27.1113C42.3086 27.2415 42.276 27.3717 42.2109 27.502C42.1458 27.7949 42.0156 28.0879 41.8203 28.3809C41.625 28.6738 41.4622 28.9668 41.332 29.2598C41.1693 29.5853 41.0065 29.8945 40.8438 30.1875C40.681 30.4805 40.4694 30.7734 40.209 31.0664C40.0462 31.2943 39.9486 31.4408 39.916 31.5059C39.8835 31.571 39.8509 31.6523 39.8184 31.75C39.5905 32.0104 39.3952 32.2546 39.2324 32.4824C39.1022 32.7103 38.9557 32.9544 38.793 33.2148C38.5977 33.4427 38.4023 33.6706 38.207 33.8984C38.0443 34.0938 37.8652 34.2728 37.6699 34.4355C37.2142 34.7611 36.791 34.9889 36.4004 35.1191C36.0423 35.2168 35.7168 35.3958 35.4238 35.6562C35.1309 35.819 34.8379 35.9329 34.5449 35.998C34.2845 36.0632 34.0729 36.1771 33.9102 36.3398C33.5195 36.4049 33.1289 36.5677 32.7383 36.8281C32.3802 37.056 31.9896 37.2188 31.5664 37.3164L30.9805 37.4629C30.8177 37.528 30.6549 37.6094 30.4922 37.707C30.3294 37.7721 30.1667 37.8372 30.0039 37.9023C29.8411 37.9674 29.6784 38.0326 29.5156 38.0977C29.3529 38.1628 29.1901 38.2279 29.0273 38.293C28.8646 38.3581 28.7018 38.4395 28.5391 38.5371C28.4089 38.6348 28.2135 38.6999 27.9531 38.7324C27.2044 39.1882 26.293 39.3346 25.2188 39.1719C25.0885 39.1393 24.9583 39.0905 24.8281 39.0254C24.7305 38.9603 24.6003 38.9115 24.4375 38.8789C24.112 38.8138 23.8027 38.765 23.5098 38.7324C23.2493 38.6999 23.0215 38.6348 22.8262 38.5371C22.696 38.472 22.5658 38.3743 22.4355 38.2441C22.3053 38.1465 22.1751 38.0977 22.0449 38.0977C21.5892 37.8698 21.1823 37.6094 20.8242 37.3164C20.4987 37.0234 20.1406 36.7142 19.75 36.3887C19.5872 36.3236 19.4245 36.2259 19.2617 36.0957C19.1315 35.9329 18.985 35.7702 18.8223 35.6074C18.8223 35.4447 18.806 35.2982 18.7734 35.168C18.7734 35.0052 18.7734 34.8424 18.7734 34.6797C18.806 34.5169 18.8385 34.3542 18.8711 34.1914C18.9362 34.0286 18.985 33.8659 19.0176 33.7031C19.1803 33.3451 19.3919 33.0033 19.6523 32.6777C19.9128 32.3197 20.1732 31.9941 20.4336 31.7012C20.6289 31.4733 20.8568 31.278 21.1172 31.1152C21.3776 30.9199 21.5892 30.6758 21.752 30.3828C21.9473 30.3177 22.0938 30.2038 22.1914 30.041C22.2891 29.8783 22.4355 29.7643 22.6309 29.6992C22.9238 29.3737 23.2656 29.1296 23.6562 28.9668C24.0794 28.804 24.4701 28.6087 24.8281 28.3809C24.9583 28.4134 25.0723 28.3971 25.1699 28.332C25.2676 28.2344 25.3652 28.153 25.4629 28.0879C25.5605 28.0553 25.6745 28.0391 25.8047 28.0391C25.9349 28.0391 26.0488 28.0065 26.1465 27.9414C26.5371 28.0065 26.9277 28.0716 27.3184 28.1367C27.709 28.1693 28.0833 28.2832 28.4414 28.4785C28.5716 28.5436 28.6855 28.625 28.7832 28.7227C28.8809 28.7878 28.9948 28.8529 29.125 28.918C29.1901 29.0156 29.2715 29.1133 29.3691 29.2109C29.4668 29.276 29.5807 29.39 29.7109 29.5527C29.8737 29.6829 30.0202 29.8294 30.1504 29.9922C30.3132 30.1549 30.2643 30.3014 30.0039 30.4316C29.418 30.4316 28.9785 30.3503 28.6855 30.1875C28.5553 30.0898 28.3926 29.9759 28.1973 29.8457C28.0345 29.7155 27.8717 29.6341 27.709 29.6016C27.5462 29.569 27.3997 29.6016 27.2695 29.6992C27.1393 29.7643 26.9928 29.8132 26.8301 29.8457C26.179 30.2038 25.5443 30.6432 24.9258 31.1641C24.3398 31.6523 23.7702 32.1732 23.2168 32.7266C23.1191 32.8568 23.0378 32.9544 22.9727 33.0195C22.9076 33.0846 22.8262 33.1986 22.7285 33.3613C22.5983 33.5241 22.5169 33.752 22.4844 34.0449C22.4844 34.3053 22.5007 34.5983 22.5332 34.9238C22.696 34.8587 22.8913 34.9401 23.1191 35.168C23.3796 35.3633 23.5749 35.4284 23.7051 35.3633C24.1608 35.5586 24.6816 35.6562 25.2676 35.6562C25.8535 35.6237 26.3743 35.5098 26.8301 35.3145C27.0905 35.1517 27.3509 35.054 27.6113 35.0215C27.9043 34.9564 28.1973 34.8587 28.4902 34.7285C28.653 34.6634 28.7995 34.5983 28.9297 34.5332C29.0599 34.4355 29.2064 34.3542 29.3691 34.2891C29.7272 34.1263 30.0365 33.9635 30.2969 33.8008C30.7201 33.5404 30.9967 33.3776 31.127 33.3125C31.2572 33.2148 31.4036 33.1172 31.5664 33.0195C31.8919 32.7591 32.25 32.515 32.6406 32.2871C33.0312 32.0592 33.4056 31.8314 33.7637 31.6035C34.3822 31.0827 34.9844 30.6107 35.5703 30.1875C36.1888 29.7318 36.8073 29.2435 37.4258 28.7227C37.6536 28.2669 37.8327 27.7298 37.9629 27.1113C38.1257 26.4928 38.1908 25.9069 38.1582 25.3535C38.1257 25.2233 38.0605 25.0117 37.9629 24.7188C37.8652 24.4258 37.7839 24.2142 37.7188 24.084C37.6536 23.9212 37.6048 23.7585 37.5723 23.5957C37.5723 23.4329 37.5234 23.2702 37.4258 23.1074C37.3281 23.0098 37.2305 22.8958 37.1328 22.7656C37.0677 22.6354 36.9701 22.5378 36.8398 22.4727C36.4492 22.3099 36.1237 22.1634 35.8633 22.0332C35.6354 21.903 35.375 21.8542 35.082 21.8867C34.5286 21.9518 33.9753 22.0495 33.4219 22.1797C32.901 22.2773 32.4128 22.4076 31.957 22.5703C31.7617 22.7005 31.6315 22.7656 31.5664 22.7656C31.5339 22.7331 31.485 22.7331 31.4199 22.7656C31.0944 22.8307 30.7526 22.9121 30.3945 23.0098C30.069 23.1074 29.7109 23.14 29.3203 23.1074C29.1576 23.3678 28.9297 23.5469 28.6367 23.6445C28.5065 23.5794 28.3926 23.5306 28.2949 23.498C28.2298 23.4655 28.1322 23.4167 28.002 23.3516C27.7741 22.8307 27.5951 22.3424 27.4648 21.8867C27.3672 21.6914 27.2858 21.431 27.2207 21.1055C27.2207 21.0404 27.2695 20.9427 27.3672 20.8125C27.4648 20.6497 27.5462 20.5195 27.6113 20.4219C27.6439 20.2591 27.7415 20.1289 27.9043 20.0312C28.0671 19.901 28.2298 19.7708 28.3926 19.6406C28.5553 19.4779 28.6693 19.3639 28.7344 19.2988C28.7995 19.2337 28.8646 19.1523 28.9297 19.0547C29.3203 18.8594 29.5482 18.7129 29.6133 18.6152C29.7109 18.5176 29.8086 18.4199 29.9062 18.3223C30.0365 18.1921 30.1667 18.0944 30.2969 18.0293C30.4271 17.9642 30.5573 17.8991 30.6875 17.834C30.9479 17.7038 31.1758 17.5573 31.3711 17.3945C31.599 17.1992 31.8431 17.0365 32.1035 16.9062C32.2988 16.7435 32.4941 16.5807 32.6895 16.418C32.8848 16.2227 33.0801 16.0436 33.2754 15.8809C33.4382 15.7507 33.6009 15.6204 33.7637 15.4902C33.9264 15.3275 34.0892 15.2135 34.252 15.1484C34.4473 14.9206 34.6589 14.7253 34.8867 14.5625C35.1146 14.3997 35.3424 14.2044 35.5703 13.9766C35.7331 13.9766 35.847 13.9115 35.9121 13.7812C36.0098 13.651 36.14 13.5697 36.3027 13.5371C36.7585 13.0814 37.263 12.6582 37.8164 12.2676C38.3698 11.877 38.8743 11.4538 39.3301 10.998C39.4277 10.9329 39.5091 10.8516 39.5742 10.7539C39.6719 10.6237 39.7858 10.526 39.916 10.4609C40.1439 10.1354 40.2741 9.67969 40.3066 9.09375C40.3717 8.47526 40.5182 7.93815 40.7461 7.48242C40.8112 7.28711 40.8926 7.07552 40.9902 6.84766C41.0879 6.58724 41.1204 6.32682 41.0879 6.06641C41.0553 5.80599 40.9251 5.54557 40.6973 5.28516C40.4694 4.99219 40.2253 4.79688 39.9648 4.69922C39.7695 4.60156 39.4766 4.63411 39.0859 4.79688C38.6953 4.92708 38.4023 5.02474 38.207 5.08984C37.8815 5.28516 37.6211 5.41536 37.4258 5.48047C37.263 5.54557 37.1003 5.61068 36.9375 5.67578C36.4492 5.90365 35.9121 6.11523 35.3262 6.31055C34.7728 6.47331 34.2357 6.6849 33.7148 6.94531C33.6497 7.04297 33.5684 7.14062 33.4707 7.23828C33.373 7.33594 33.2917 7.41732 33.2266 7.48242C33.0964 7.84049 32.9336 8.13346 32.7383 8.36133C32.5755 8.55664 32.3802 8.76823 32.1523 8.99609C32.0547 9.09375 31.9733 9.20768 31.9082 9.33789C31.8431 9.43555 31.778 9.51693 31.7129 9.58203C31.4199 9.875 31.2409 10.0866 31.1758 10.2168C31.1432 10.3145 31.0944 10.3958 31.0293 10.4609C30.9642 10.5586 30.8828 10.64 30.7852 10.7051C30.6875 10.7702 30.6061 10.8353 30.541 10.9004C30.4434 10.998 30.3457 11.112 30.248 11.2422C30.1829 11.3398 30.1178 11.4212 30.0527 11.4863C29.9225 11.584 29.7923 11.6816 29.6621 11.7793C29.5319 11.8444 29.4342 11.9583 29.3691 12.1211C29.2064 12.1862 29.0273 12.235 28.832 12.2676C28.6693 12.3001 28.4902 12.3164 28.2949 12.3164C27.9368 12.2188 27.7253 12.2188 27.6602 12.3164C27.5951 12.3815 27.5299 12.4629 27.4648 12.5605C27.3997 12.6582 27.3346 12.7396 27.2695 12.8047C27.237 12.8698 27.1882 12.8861 27.123 12.8535C26.6999 12.5931 26.4232 12.4466 26.293 12.4141C26.1628 12.349 26.0163 12.2513 25.8535 12.1211C25.5931 11.7956 25.4303 11.3887 25.3652 10.9004C25.3327 10.3796 25.349 9.89128 25.4141 9.43555C25.2839 9.07747 25.3652 8.78451 25.6582 8.55664C25.9512 8.29622 26.2116 8.08464 26.4395 7.92188C26.5371 7.79167 26.6185 7.69401 26.6836 7.62891C26.7487 7.53125 26.8301 7.44987 26.9277 7.38477C27.0905 7.25456 27.2533 7.14062 27.416 7.04297C27.5788 6.94531 27.7253 6.8151 27.8555 6.65234C28.0833 6.58724 28.2624 6.50586 28.3926 6.4082C28.5553 6.27799 28.7181 6.18034 28.8809 6.11523C29.5319 5.65951 30.0853 5.30143 30.541 5.04102C30.9967 4.74805 31.5176 4.52018 32.1035 4.35742L34.7402 2.89258C34.9681 2.79492 35.0983 2.74609 35.1309 2.74609C35.1634 2.71354 35.196 2.68099 35.2285 2.64844C35.5866 2.48568 35.9609 2.32292 36.3516 2.16016C36.7422 1.9974 37.1654 1.83464 37.6211 1.67188C37.8164 1.57422 38.0117 1.50911 38.207 1.47656C38.4349 1.44401 38.679 1.39518 38.9395 1.33008C39.3626 1.23242 39.7695 1.16732 40.1602 1.13477C40.5508 1.10221 40.974 1.11849 41.4297 1.18359C41.5924 1.21615 41.7389 1.28125 41.8691 1.37891C41.9993 1.44401 42.1458 1.50911 42.3086 1.57422C42.4714 1.63932 42.6341 1.68815 42.7969 1.7207C42.9922 1.75326 43.1712 1.80208 43.334 1.86719C43.5293 1.96484 43.6921 2.07878 43.8223 2.20898C43.985 2.33919 44.1641 2.4694 44.3594 2.59961C44.4245 2.79492 44.5384 2.95768 44.7012 3.08789C44.8965 3.2181 45.0267 3.36458 45.0918 3.52734L45.1406 4.01562ZM55.248 36.584C55.0527 36.1608 55.0202 35.526 55.1504 34.6797C55.2155 34.3216 55.2643 34.0449 55.2969 33.8496C55.362 33.6217 55.4271 33.2474 55.4922 32.7266C55.5573 32.2383 55.6387 31.7337 55.7363 31.2129C55.8665 30.6921 55.9642 30.1712 56.0293 29.6504C55.541 30.3991 55.0853 31.1966 54.6621 32.043C54.2389 32.8568 53.7344 33.5404 53.1484 34.0938C53.0508 34.3867 52.9368 34.5983 52.8066 34.7285C52.6764 34.8262 52.5299 34.9238 52.3672 35.0215C52.237 35.0866 52.0905 35.168 51.9277 35.2656C51.7975 35.3633 51.6836 35.5586 51.5859 35.8516C51.4232 36.0143 51.2604 36.1934 51.0977 36.3887C50.9674 36.5514 50.8698 36.763 50.8047 37.0234C50.6419 37.0885 50.4792 37.2188 50.3164 37.4141C50.0234 37.707 49.8281 37.8698 49.7305 37.9023C49.6328 37.9349 49.5514 37.9837 49.4863 38.0488C49.1608 38.3092 48.8678 38.5046 48.6074 38.6348C48.3796 38.765 48.1029 38.8464 47.7773 38.8789C47.4193 38.944 46.9473 38.9928 46.3613 39.0254C45.8079 39.0579 45.3685 39.0905 45.043 39.123C44.8151 38.9603 44.6523 38.8626 44.5547 38.8301C44.457 38.7975 44.278 38.7324 44.0176 38.6348C43.5944 38.472 43.3665 38.3743 43.334 38.3418C43.3014 38.3418 43.2201 38.3092 43.0898 38.2441C42.8294 38.0488 42.6504 37.9023 42.5527 37.8047C42.4551 37.6745 42.3411 37.5443 42.2109 37.4141C41.6576 36.5677 41.3483 35.4935 41.2832 34.1914C41.2507 33.7357 41.332 33.2799 41.5273 32.8242C41.7227 32.3685 41.9017 31.9616 42.0645 31.6035C42.2272 31.2454 42.4388 30.8711 42.6992 30.4805C42.9596 30.0898 43.1712 29.7318 43.334 29.4062C43.4316 29.2109 43.4805 29.0645 43.4805 28.9668C43.4805 28.8366 43.4642 28.7227 43.4316 28.625C43.3991 28.5273 43.3828 28.4297 43.3828 28.332C43.3828 28.2344 43.4316 28.0879 43.5293 27.8926C43.5944 27.6647 43.6921 27.4368 43.8223 27.209C43.9525 26.9811 44.099 26.7207 44.2617 26.4277C44.5872 25.8743 44.8965 25.4186 45.1895 25.0605C45.4824 24.6699 45.7266 24.1816 45.9219 23.5957C46.0846 23.14 46.2962 22.7982 46.5566 22.5703C46.8496 22.3099 47.1914 22.082 47.582 21.8867C47.7448 21.9518 47.9727 21.9355 48.2656 21.8379C48.5911 21.7077 48.8353 21.5775 48.998 21.4473C49.2259 21.4473 49.4049 21.3822 49.5352 21.252C49.8932 21.1868 50.0723 21.1868 50.0723 21.252C50.1048 21.3171 50.1536 21.3496 50.2188 21.3496C50.2839 21.3822 50.3652 21.3822 50.4629 21.3496C50.5931 21.3171 50.6908 21.3171 50.7559 21.3496C50.8535 21.6751 50.9349 21.8867 51 21.9844C51.0651 22.082 51.0977 22.1634 51.0977 22.2285C51.0977 22.3262 51.0814 22.4564 51.0488 22.6191C51.0488 22.7819 51.0326 22.8958 51 22.9609C50.8047 23.2214 50.6908 23.3841 50.6582 23.4492C50.6582 23.4818 50.6419 23.5306 50.6094 23.5957C50.4141 23.8561 50.1699 24.2142 49.877 24.6699C49.584 25.0931 49.3236 25.4674 49.0957 25.793C48.9329 26.0534 48.7702 26.2324 48.6074 26.3301C48.4447 26.4277 48.2982 26.6068 48.168 26.8672C48.1029 26.9974 48.054 27.1276 48.0215 27.2578C47.9889 27.3555 47.9401 27.4694 47.875 27.5996C47.5169 28.3483 47.0938 29.1458 46.6055 29.9922C46.1172 30.806 45.6777 31.5872 45.2871 32.3359C45.2546 32.5964 45.1895 32.8568 45.0918 33.1172C45.0267 33.3451 44.9941 33.5729 44.9941 33.8008C44.9941 33.8333 44.9779 33.931 44.9453 34.0938C44.9453 34.224 44.9453 34.3867 44.9453 34.582C44.9453 34.7448 44.9453 34.9076 44.9453 35.0703C44.9453 35.2331 44.9616 35.3307 44.9941 35.3633C45.1895 35.6237 45.3034 35.7539 45.3359 35.7539C45.3685 35.7214 45.401 35.7214 45.4336 35.7539C45.5638 36.0794 45.6452 36.2747 45.6777 36.3398C45.7428 36.3724 45.8568 36.4212 46.0195 36.4863C46.1497 36.5189 46.3288 36.5026 46.5566 36.4375C46.8171 36.3398 47.0124 36.2585 47.1426 36.1934C47.5332 35.998 47.8262 35.8027 48.0215 35.6074C48.2168 35.3796 48.4121 35.1517 48.6074 34.9238C48.7702 34.7285 48.998 34.4355 49.291 34.0449C49.584 33.6543 49.877 33.2637 50.1699 32.873C50.4629 32.4499 50.7559 32.0592 51.0488 31.7012C51.3418 31.3105 51.5697 31.0176 51.7324 30.8223C51.9277 30.3991 52.1556 30.0085 52.416 29.6504C52.709 29.2923 52.9531 28.918 53.1484 28.5273C53.4089 28.0065 53.6367 27.5671 53.832 27.209C54.0273 26.8509 54.2552 26.4277 54.5156 25.9395C54.7109 25.679 54.9062 25.4349 55.1016 25.207C55.3294 24.9466 55.4922 24.6048 55.5898 24.1816C55.6549 23.9538 55.7689 23.7422 55.9316 23.5469C56.127 23.319 56.2734 23.1237 56.3711 22.9609C56.599 22.7656 56.7454 22.5866 56.8105 22.4238C56.9082 22.2611 57.0221 22.1471 57.1523 22.082C57.5104 21.9844 57.7871 21.9193 57.9824 21.8867C58.1777 21.8216 58.4219 21.8216 58.7148 21.8867C58.9753 21.724 59.252 21.6426 59.5449 21.6426C59.8379 21.6426 60.1146 21.6589 60.375 21.6914C60.375 21.8542 60.4076 21.9681 60.4727 22.0332C60.5703 22.0658 60.6191 22.1471 60.6191 22.2773C60.7493 22.5703 60.7493 22.9284 60.6191 23.3516C60.4889 23.7747 60.4076 24.1979 60.375 24.6211C60.3099 24.9466 60.1797 25.2559 59.9844 25.5488C59.8216 25.8092 59.6914 26.1185 59.5938 26.4766C59.4635 26.9648 59.3822 27.2578 59.3496 27.3555C59.3171 27.4531 59.2682 27.6322 59.2031 27.8926C59.0729 28.4785 58.9427 29.0319 58.8125 29.5527C58.6823 30.041 58.5846 30.6107 58.5195 31.2617C58.5195 31.4245 58.487 31.6035 58.4219 31.7988C58.3893 31.9616 58.373 32.1081 58.373 32.2383C58.373 32.401 58.373 32.5964 58.373 32.8242C58.4056 33.0521 58.5033 33.1986 58.666 33.2637C58.8613 33.3288 59.0078 33.3125 59.1055 33.2148C59.2357 33.1172 59.4147 33.0033 59.6426 32.873C59.8053 32.7428 59.9681 32.5964 60.1309 32.4336C60.2936 32.2708 60.4564 32.1243 60.6191 31.9941C60.7819 31.8314 60.9609 31.7012 61.1562 31.6035C61.3516 31.5059 61.5306 31.3757 61.6934 31.2129C62.2142 30.7572 62.7025 30.2852 63.1582 29.7969C63.6465 29.3086 64.1673 28.9017 64.7207 28.5762C65.2415 28.0228 65.7624 27.5182 66.2832 27.0625C66.8366 26.5742 67.4551 26.1673 68.1387 25.8418C68.3991 26.265 68.4642 26.623 68.334 26.916C68.2038 27.1764 68.041 27.4368 67.8457 27.6973C67.7806 27.7624 67.6667 27.8438 67.5039 27.9414C67.3411 28.0391 67.2109 28.1204 67.1133 28.1855C67.0482 28.2507 66.9668 28.332 66.8691 28.4297C66.7715 28.5273 66.6901 28.5762 66.625 28.5762C66.625 28.7064 66.5762 28.8203 66.4785 28.918C66.4134 28.9831 66.3483 29.0482 66.2832 29.1133C65.86 29.7643 65.388 30.3503 64.8672 30.8711C64.3464 31.3594 63.8418 31.8639 63.3535 32.3848C63.1257 32.4499 62.9792 32.5638 62.9141 32.7266C62.8815 32.8568 62.7839 32.987 62.6211 33.1172C62.4909 33.2799 62.3607 33.4264 62.2305 33.5566C62.1003 33.6543 61.9701 33.7845 61.8398 33.9473C61.6445 34.1751 61.4655 34.403 61.3027 34.6309C61.1725 34.8262 60.9772 35.0215 60.7168 35.2168C60.554 35.3796 60.4238 35.5586 60.3262 35.7539C60.2611 35.9167 60.1471 36.0794 59.9844 36.2422C59.724 36.5026 59.5286 36.6328 59.3984 36.6328C59.3008 36.6003 59.2194 36.7467 59.1543 37.0723C58.8939 37.2676 58.7474 37.4141 58.7148 37.5117C58.6823 37.5768 58.6335 37.5931 58.5684 37.5605C58.5033 37.5931 58.3893 37.6257 58.2266 37.6582C58.0638 37.6582 57.9824 37.6908 57.9824 37.7559C57.7546 37.8535 57.5755 37.9512 57.4453 38.0488C57.3477 38.1465 57.2012 38.2116 57.0059 38.2441C56.5827 38.3092 56.2734 38.2767 56.0781 38.1465C55.9154 38.0488 55.7363 37.8861 55.541 37.6582L55.248 36.584ZM80.6387 26.4766C80.9967 26.5742 81.2246 26.6882 81.3223 26.8184C81.4525 26.9486 81.5176 27.0788 81.5176 27.209C81.2572 27.5671 81.0944 27.8112 81.0293 27.9414C80.9967 28.0391 80.8991 28.1204 80.7363 28.1855C80.3132 28.8366 79.8249 29.4225 79.2715 29.9434C78.7507 30.4316 78.2624 30.985 77.8066 31.6035C77.6439 31.7663 77.4974 31.929 77.3672 32.0918C77.237 32.2546 77.0905 32.4173 76.9277 32.5801C76.5697 32.8405 76.2441 33.1335 75.9512 33.459C75.6582 33.752 75.349 34.0286 75.0234 34.2891C74.8607 34.4193 74.6979 34.5495 74.5352 34.6797C74.4049 34.7773 74.2585 34.9076 74.0957 35.0703C73.9329 35.2331 73.7865 35.3633 73.6562 35.4609C73.526 35.5586 73.3796 35.6725 73.2168 35.8027C73.0215 36.0306 72.8262 36.2585 72.6309 36.4863C72.4355 36.7142 72.2402 36.9583 72.0449 37.2188C71.6868 37.3815 71.3613 37.5768 71.0684 37.8047C70.7754 38.0326 70.4336 38.2279 70.043 38.3906C69.8802 38.4883 69.7174 38.6348 69.5547 38.8301C69.4245 39.0579 69.2454 39.2044 69.0176 39.2695C68.7572 39.3672 68.4805 39.3835 68.1875 39.3184C67.8945 39.2858 67.6504 39.2207 67.4551 39.123C67.2923 38.9928 67.1621 38.9115 67.0645 38.8789C66.9668 38.8464 66.8854 38.8301 66.8203 38.8301C66.5273 38.4069 66.3158 37.9512 66.1855 37.4629C66.0553 36.9421 65.9089 36.4049 65.7461 35.8516C65.681 35.6888 65.6322 35.526 65.5996 35.3633C65.5671 35.168 65.5345 34.9564 65.502 34.7285C65.4694 34.5983 65.4368 34.4681 65.4043 34.3379C65.4043 34.2077 65.3717 34.0612 65.3066 33.8984C65.2415 33.7357 65.1764 33.5729 65.1113 33.4102C65.0462 33.2148 64.9974 33.0195 64.9648 32.8242C64.8997 32.4336 64.8835 32.0592 64.916 31.7012C64.916 31.3105 64.9486 30.9362 65.0137 30.5781C65.209 29.5039 65.4857 28.4785 65.8438 27.502C66.2344 26.5254 66.625 25.5977 67.0156 24.7188C67.0807 24.3607 67.1621 24.0514 67.2598 23.791C67.39 23.5306 67.5039 23.2376 67.6016 22.9121C67.7643 22.6842 67.8783 22.4238 67.9434 22.1309C68.0085 21.8379 68.0898 21.5449 68.1875 21.252C68.2852 20.9915 68.3991 20.7148 68.5293 20.4219C68.6921 20.0964 68.806 19.7871 68.8711 19.4941C68.9688 19.1686 69.0501 18.8431 69.1152 18.5176C69.2129 18.1921 69.3268 17.8991 69.457 17.6387C69.7174 16.9551 69.9616 16.304 70.1895 15.6855C70.4173 15.0671 70.6615 14.4486 70.9219 13.8301C70.987 13.6348 71.0521 13.4395 71.1172 13.2441C71.1823 13.0488 71.2799 12.8698 71.4102 12.707C71.4753 12.5117 71.5566 12.349 71.6543 12.2188C71.752 12.056 71.8496 11.8932 71.9473 11.7305C71.9473 11.5677 71.9961 11.4538 72.0938 11.3887C72.224 11.291 72.3216 11.1771 72.3867 11.0469C72.5495 10.7865 72.6634 10.526 72.7285 10.2656C72.8262 10.0052 72.9564 9.74479 73.1191 9.48438L73.7051 8.75195C73.7702 8.62174 73.8353 8.49154 73.9004 8.36133C73.9655 8.23112 74.0632 8.11719 74.1934 8.01953C74.5514 7.43359 74.9421 6.84766 75.3652 6.26172C75.7884 5.67578 76.2279 5.05729 76.6836 4.40625C76.9766 3.95052 77.3021 3.52734 77.6602 3.13672C78.0182 2.71354 78.3926 2.30664 78.7832 1.91602C78.9134 1.75326 79.0599 1.57422 79.2227 1.37891C79.418 1.18359 79.6133 1.06966 79.8086 1.03711C80.1016 1.00456 80.4271 1.03711 80.7852 1.13477C80.8828 1.29753 80.9642 1.47656 81.0293 1.67188C81.127 1.83464 81.2083 2.02995 81.2734 2.25781C81.3385 3.26693 81.306 4.24349 81.1758 5.1875C81.0456 6.13151 80.8991 7.05924 80.7363 7.9707C80.7038 8.13346 80.6875 8.29622 80.6875 8.45898C80.7201 8.58919 80.7201 8.73568 80.6875 8.89844C80.6224 9.09375 80.541 9.35417 80.4434 9.67969C80.3457 9.97266 80.2643 10.2493 80.1992 10.5098C80.1992 10.9655 80.1016 11.3724 79.9062 11.7305C79.7109 12.0885 79.5807 12.4466 79.5156 12.8047C79.418 12.8698 79.3529 12.9837 79.3203 13.1465C79.3203 13.2767 79.2715 13.3743 79.1738 13.4395C79.1087 13.7975 78.9948 14.123 78.832 14.416C78.7018 14.709 78.5879 15.002 78.4902 15.2949C78.002 15.9785 77.4974 16.6458 76.9766 17.2969C76.4883 17.9154 76.0163 18.5664 75.5605 19.25C75.0072 20.0964 74.4049 20.9102 73.7539 21.6914C73.1354 22.4727 72.5495 23.2865 71.9961 24.1328C71.5729 24.4909 71.2148 24.8978 70.9219 25.3535C70.6289 25.8092 70.2546 26.2161 69.7988 26.5742C69.6361 27.2253 69.4733 27.9414 69.3105 28.7227C69.1803 29.4714 69.0339 30.2363 68.8711 31.0176C68.8385 31.2454 68.7897 31.4733 68.7246 31.7012C68.6595 31.8965 68.5944 32.1081 68.5293 32.3359C68.4642 32.5964 68.4479 32.873 68.4805 33.166C68.513 33.459 68.4642 33.7357 68.334 33.9961C68.3991 34.1589 68.4316 34.3542 68.4316 34.582C68.4642 34.7773 68.5293 34.9564 68.627 35.1191C68.6921 35.2168 68.7734 35.3145 68.8711 35.4121C69.0013 35.5098 69.1152 35.5586 69.2129 35.5586C69.4408 35.4284 69.571 35.3796 69.6035 35.4121C69.6361 35.4121 69.6849 35.3958 69.75 35.3633C69.9128 35.2656 70.0755 35.1354 70.2383 34.9727C70.401 34.8099 70.5475 34.6634 70.6777 34.5332C70.8405 34.4681 70.9544 34.403 71.0195 34.3379C71.1172 34.2402 71.2148 34.1589 71.3125 34.0938C71.4102 34.0286 71.4915 33.9798 71.5566 33.9473C71.6543 33.9147 71.7357 33.8659 71.8008 33.8008C72.2565 33.3125 72.696 32.9544 73.1191 32.7266C73.5423 32.4661 73.8841 32.1569 74.1445 31.7988C74.4701 31.6035 74.763 31.4245 75.0234 31.2617C75.2188 31.1641 75.3815 31.0339 75.5117 30.8711C75.6745 30.6758 75.8698 30.5293 76.0977 30.4316C76.1628 30.334 76.2279 30.2526 76.293 30.1875C76.3581 30.1224 76.4232 30.041 76.4883 29.9434C76.8789 29.6829 77.2533 29.4225 77.6113 29.1621C78.002 28.9017 78.4089 28.6413 78.832 28.3809C78.8971 28.2181 78.9948 28.0879 79.125 27.9902C79.2878 27.8926 79.418 27.7949 79.5156 27.6973C79.6133 27.5996 79.6947 27.502 79.7598 27.4043C79.8249 27.2741 79.9388 27.1927 80.1016 27.1602C80.1341 26.9974 80.1992 26.8835 80.2969 26.8184C80.4271 26.7533 80.541 26.6393 80.6387 26.4766ZM77.9531 8.26367C77.6602 8.32878 77.4486 8.47526 77.3184 8.70312C77.2207 8.93099 77.123 9.19141 77.0254 9.48438C76.8952 9.74479 76.7812 9.9401 76.6836 10.0703C76.6185 10.2005 76.6022 10.3958 76.6348 10.6562C75.6257 12.3164 74.6979 14.0579 73.8516 15.8809C73.0378 17.7038 72.2077 19.543 71.3613 21.3984C72.0124 20.7474 72.6146 19.9661 73.168 19.0547C73.7539 18.1432 74.3561 17.362 74.9746 16.7109C75.4303 15.6042 75.9349 14.5788 76.4883 13.6348C77.0417 12.6582 77.4648 11.5677 77.7578 10.3633C77.6276 9.97266 77.6439 9.63086 77.8066 9.33789C77.9694 9.01237 78.0345 8.6543 78.002 8.26367H77.9531ZM93.7246 26.4766C94.0827 26.5742 94.3105 26.6882 94.4082 26.8184C94.5384 26.9486 94.6035 27.0788 94.6035 27.209C94.3431 27.5671 94.1803 27.8112 94.1152 27.9414C94.0827 28.0391 93.985 28.1204 93.8223 28.1855C93.3991 28.8366 92.9108 29.4225 92.3574 29.9434C91.8366 30.4316 91.3483 30.985 90.8926 31.6035C90.7298 31.7663 90.5833 31.929 90.4531 32.0918C90.3229 32.2546 90.1764 32.4173 90.0137 32.5801C89.6556 32.8405 89.3301 33.1335 89.0371 33.459C88.7441 33.752 88.4349 34.0286 88.1094 34.2891C87.9466 34.4193 87.7839 34.5495 87.6211 34.6797C87.4909 34.7773 87.3444 34.9076 87.1816 35.0703C87.0189 35.2331 86.8724 35.3633 86.7422 35.4609C86.612 35.5586 86.4655 35.6725 86.3027 35.8027C86.1074 36.0306 85.9121 36.2585 85.7168 36.4863C85.5215 36.7142 85.3262 36.9583 85.1309 37.2188C84.7728 37.3815 84.4473 37.5768 84.1543 37.8047C83.8613 38.0326 83.5195 38.2279 83.1289 38.3906C82.9661 38.4883 82.8034 38.6348 82.6406 38.8301C82.5104 39.0579 82.3314 39.2044 82.1035 39.2695C81.8431 39.3672 81.5664 39.3835 81.2734 39.3184C80.9805 39.2858 80.7363 39.2207 80.541 39.123C80.3783 38.9928 80.248 38.9115 80.1504 38.8789C80.0527 38.8464 79.9714 38.8301 79.9062 38.8301C79.6133 38.4069 79.4017 37.9512 79.2715 37.4629C79.1413 36.9421 78.9948 36.4049 78.832 35.8516C78.7669 35.6888 78.7181 35.526 78.6855 35.3633C78.653 35.168 78.6204 34.9564 78.5879 34.7285C78.5553 34.5983 78.5228 34.4681 78.4902 34.3379C78.4902 34.2077 78.4577 34.0612 78.3926 33.8984C78.3275 33.7357 78.2624 33.5729 78.1973 33.4102C78.1322 33.2148 78.0833 33.0195 78.0508 32.8242C77.9857 32.4336 77.9694 32.0592 78.002 31.7012C78.002 31.3105 78.0345 30.9362 78.0996 30.5781C78.2949 29.5039 78.5716 28.4785 78.9297 27.502C79.3203 26.5254 79.7109 25.5977 80.1016 24.7188C80.1667 24.3607 80.248 24.0514 80.3457 23.791C80.4759 23.5306 80.5898 23.2376 80.6875 22.9121C80.8503 22.6842 80.9642 22.4238 81.0293 22.1309C81.0944 21.8379 81.1758 21.5449 81.2734 21.252C81.3711 20.9915 81.485 20.7148 81.6152 20.4219C81.778 20.0964 81.8919 19.7871 81.957 19.4941C82.0547 19.1686 82.1361 18.8431 82.2012 18.5176C82.2988 18.1921 82.4128 17.8991 82.543 17.6387C82.8034 16.9551 83.0475 16.304 83.2754 15.6855C83.5033 15.0671 83.7474 14.4486 84.0078 13.8301C84.0729 13.6348 84.138 13.4395 84.2031 13.2441C84.2682 13.0488 84.3659 12.8698 84.4961 12.707C84.5612 12.5117 84.6426 12.349 84.7402 12.2188C84.8379 12.056 84.9355 11.8932 85.0332 11.7305C85.0332 11.5677 85.082 11.4538 85.1797 11.3887C85.3099 11.291 85.4076 11.1771 85.4727 11.0469C85.6354 10.7865 85.7493 10.526 85.8145 10.2656C85.9121 10.0052 86.0423 9.74479 86.2051 9.48438L86.791 8.75195C86.8561 8.62174 86.9212 8.49154 86.9863 8.36133C87.0514 8.23112 87.1491 8.11719 87.2793 8.01953C87.6374 7.43359 88.028 6.84766 88.4512 6.26172C88.8743 5.67578 89.3138 5.05729 89.7695 4.40625C90.0625 3.95052 90.388 3.52734 90.7461 3.13672C91.1042 2.71354 91.4785 2.30664 91.8691 1.91602C91.9993 1.75326 92.1458 1.57422 92.3086 1.37891C92.5039 1.18359 92.6992 1.06966 92.8945 1.03711C93.1875 1.00456 93.513 1.03711 93.8711 1.13477C93.9688 1.29753 94.0501 1.47656 94.1152 1.67188C94.2129 1.83464 94.2943 2.02995 94.3594 2.25781C94.4245 3.26693 94.3919 4.24349 94.2617 5.1875C94.1315 6.13151 93.985 7.05924 93.8223 7.9707C93.7897 8.13346 93.7734 8.29622 93.7734 8.45898C93.806 8.58919 93.806 8.73568 93.7734 8.89844C93.7083 9.09375 93.627 9.35417 93.5293 9.67969C93.4316 9.97266 93.3503 10.2493 93.2852 10.5098C93.2852 10.9655 93.1875 11.3724 92.9922 11.7305C92.7969 12.0885 92.6667 12.4466 92.6016 12.8047C92.5039 12.8698 92.4388 12.9837 92.4062 13.1465C92.4062 13.2767 92.3574 13.3743 92.2598 13.4395C92.1947 13.7975 92.0807 14.123 91.918 14.416C91.7878 14.709 91.6738 15.002 91.5762 15.2949C91.0879 15.9785 90.5833 16.6458 90.0625 17.2969C89.5742 17.9154 89.1022 18.5664 88.6465 19.25C88.0931 20.0964 87.4909 20.9102 86.8398 21.6914C86.2214 22.4727 85.6354 23.2865 85.082 24.1328C84.6589 24.4909 84.3008 24.8978 84.0078 25.3535C83.7148 25.8092 83.3405 26.2161 82.8848 26.5742C82.722 27.2253 82.5592 27.9414 82.3965 28.7227C82.2663 29.4714 82.1198 30.2363 81.957 31.0176C81.9245 31.2454 81.8757 31.4733 81.8105 31.7012C81.7454 31.8965 81.6803 32.1081 81.6152 32.3359C81.5501 32.5964 81.5339 32.873 81.5664 33.166C81.599 33.459 81.5501 33.7357 81.4199 33.9961C81.485 34.1589 81.5176 34.3542 81.5176 34.582C81.5501 34.7773 81.6152 34.9564 81.7129 35.1191C81.778 35.2168 81.8594 35.3145 81.957 35.4121C82.0872 35.5098 82.2012 35.5586 82.2988 35.5586C82.5267 35.4284 82.6569 35.3796 82.6895 35.4121C82.722 35.4121 82.7708 35.3958 82.8359 35.3633C82.9987 35.2656 83.1615 35.1354 83.3242 34.9727C83.487 34.8099 83.6335 34.6634 83.7637 34.5332C83.9264 34.4681 84.0404 34.403 84.1055 34.3379C84.2031 34.2402 84.3008 34.1589 84.3984 34.0938C84.4961 34.0286 84.5775 33.9798 84.6426 33.9473C84.7402 33.9147 84.8216 33.8659 84.8867 33.8008C85.3424 33.3125 85.7819 32.9544 86.2051 32.7266C86.6283 32.4661 86.9701 32.1569 87.2305 31.7988C87.556 31.6035 87.849 31.4245 88.1094 31.2617C88.3047 31.1641 88.4674 31.0339 88.5977 30.8711C88.7604 30.6758 88.9557 30.5293 89.1836 30.4316C89.2487 30.334 89.3138 30.2526 89.3789 30.1875C89.444 30.1224 89.5091 30.041 89.5742 29.9434C89.9648 29.6829 90.3392 29.4225 90.6973 29.1621C91.0879 28.9017 91.4948 28.6413 91.918 28.3809C91.9831 28.2181 92.0807 28.0879 92.2109 27.9902C92.3737 27.8926 92.5039 27.7949 92.6016 27.6973C92.6992 27.5996 92.7806 27.502 92.8457 27.4043C92.9108 27.2741 93.0247 27.1927 93.1875 27.1602C93.2201 26.9974 93.2852 26.8835 93.3828 26.8184C93.513 26.7533 93.627 26.6393 93.7246 26.4766ZM91.0391 8.26367C90.7461 8.32878 90.5345 8.47526 90.4043 8.70312C90.3066 8.93099 90.209 9.19141 90.1113 9.48438C89.9811 9.74479 89.8672 9.9401 89.7695 10.0703C89.7044 10.2005 89.6882 10.3958 89.7207 10.6562C88.7116 12.3164 87.7839 14.0579 86.9375 15.8809C86.1237 17.7038 85.2936 19.543 84.4473 21.3984C85.0983 20.7474 85.7005 19.9661 86.2539 19.0547C86.8398 18.1432 87.4421 17.362 88.0605 16.7109C88.5163 15.6042 89.0208 14.5788 89.5742 13.6348C90.1276 12.6582 90.5508 11.5677 90.8438 10.3633C90.7135 9.97266 90.7298 9.63086 90.8926 9.33789C91.0553 9.01237 91.1204 8.6543 91.0879 8.26367H91.0391ZM99.3398 24.084C99.112 24.377 98.8841 24.6536 98.6562 24.9141C98.4284 25.1745 98.168 25.4186 97.875 25.6465C97.6797 26.0046 97.4518 26.3301 97.1914 26.623C96.931 26.916 96.6706 27.1927 96.4102 27.4531C96.2799 27.7135 96.1335 27.9251 95.9707 28.0879C95.8079 28.2181 95.6289 28.3646 95.4336 28.5273C95.3359 28.6901 95.2057 28.8529 95.043 29.0156C94.9128 29.1784 94.7826 29.3411 94.6523 29.5039C94.5547 29.6667 94.4733 29.8457 94.4082 30.041C94.3431 30.2363 94.3594 30.4479 94.457 30.6758C94.8151 30.7409 95.1732 30.6921 95.5312 30.5293C95.8893 30.3665 96.1986 30.2201 96.459 30.0898C96.7194 29.9271 96.9798 29.7969 97.2402 29.6992C97.5332 29.569 97.7936 29.4225 98.0215 29.2598L99.291 27.9902C99.5189 27.7949 99.7142 27.5833 99.877 27.3555C100.04 27.1276 100.219 26.8835 100.414 26.623C100.479 26.2975 100.609 25.972 100.805 25.6465C101 25.2884 101.081 24.9466 101.049 24.6211C101.016 24.4258 100.951 24.263 100.854 24.1328C100.788 23.9701 100.74 23.8073 100.707 23.6445C100.382 23.6445 100.121 23.7096 99.9258 23.8398C99.763 23.9375 99.5677 24.0189 99.3398 24.084ZM91.4785 27.209C91.5436 27.1764 91.6738 27.0462 91.8691 26.8184C92.097 26.5579 92.3411 26.2812 92.6016 25.9883C92.862 25.6628 93.1061 25.3861 93.334 25.1582C93.5618 24.8978 93.7246 24.7513 93.8223 24.7188C93.9199 24.556 94.0013 24.4258 94.0664 24.3281C94.1641 24.1979 94.2943 24.084 94.457 23.9863C94.7174 23.498 95.0592 23.1074 95.4824 22.8145C95.9056 22.4889 96.3125 22.1146 96.7031 21.6914C97.3216 21.431 97.9401 21.1055 98.5586 20.7148C99.2096 20.2917 99.9258 20.0638 100.707 20.0312C101.065 20.194 101.407 20.2428 101.732 20.1777C102.09 20.1126 102.416 20.194 102.709 20.4219C102.872 20.7148 103.018 20.9102 103.148 21.0078C103.279 21.0729 103.376 21.1543 103.441 21.252C103.572 21.6751 103.669 21.9518 103.734 22.082C103.799 22.1797 103.848 22.3099 103.881 22.4727C103.913 22.9609 103.946 23.319 103.979 23.5469C104.011 23.7422 104.011 23.9375 103.979 24.1328C103.881 25.0117 103.718 25.8418 103.49 26.623C103.425 26.8184 103.36 27.0299 103.295 27.2578C103.23 27.4531 103.148 27.6322 103.051 27.7949C102.823 28.0879 102.644 28.3483 102.514 28.5762C102.416 28.7715 102.318 28.9342 102.221 29.0645C101.83 29.4551 101.488 29.7806 101.195 30.041C100.902 30.2038 100.609 30.3828 100.316 30.5781C100.023 30.7734 99.6979 30.9036 99.3398 30.9688C99.1771 31.0664 99.0306 31.1641 98.9004 31.2617C98.7702 31.3268 98.6074 31.3757 98.4121 31.4082C98.0866 31.6361 97.7611 31.8151 97.4355 31.9453C97.11 32.043 96.7682 32.1732 96.4102 32.3359C96.2148 32.401 96.0033 32.515 95.7754 32.6777C95.5475 32.8405 95.3197 32.9707 95.0918 33.0684C94.8965 33.1335 94.6523 33.1986 94.3594 33.2637C94.099 33.2962 93.8874 33.3451 93.7246 33.4102C93.8874 33.7682 93.9525 34.1751 93.9199 34.6309C93.8874 35.0866 93.9688 35.4935 94.1641 35.8516C94.5872 35.9492 95.043 36.0306 95.5312 36.0957C96.0521 36.1283 96.5404 36.112 96.9961 36.0469C97.1589 36.0143 97.3379 35.9655 97.5332 35.9004C97.7285 35.8027 97.9238 35.7376 98.1191 35.7051C98.4772 35.64 98.819 35.5586 99.1445 35.4609C99.5026 35.3633 99.8118 35.2331 100.072 35.0703C101.016 34.7448 101.928 34.3053 102.807 33.752C103.686 33.1986 104.451 32.5964 105.102 31.9453C105.492 31.6849 105.915 31.3268 106.371 30.8711C106.859 30.4154 107.234 29.9922 107.494 29.6016C107.982 29.0807 108.406 28.6738 108.764 28.3809C109.154 28.0879 109.512 27.9577 109.838 27.9902C110.098 27.9902 110.342 28.153 110.57 28.4785C110.831 28.7715 110.814 29.097 110.521 29.4551C110.196 29.6504 109.854 29.9434 109.496 30.334C109.138 30.7246 108.764 31.0013 108.373 31.1641C108.08 31.3594 107.706 31.7174 107.25 32.2383C106.827 32.7591 106.469 33.1497 106.176 33.4102C106.046 33.5404 105.867 33.7031 105.639 33.8984C105.443 34.0612 105.281 34.224 105.15 34.3867C104.695 34.7773 104.206 35.1354 103.686 35.4609C103.49 35.3958 103.344 35.4284 103.246 35.5586C103.148 35.6888 103.018 35.819 102.855 35.9492C102.758 36.0143 102.644 36.0794 102.514 36.1445C102.416 36.2096 102.318 36.2747 102.221 36.3398C101.96 36.5677 101.667 36.7956 101.342 37.0234C101.049 37.2513 100.74 37.4466 100.414 37.6094C99.763 38 99.112 38.3255 98.4609 38.5859C97.8099 38.8789 97.1751 39.237 96.5566 39.6602C96.3613 39.6927 96.1823 39.709 96.0195 39.709C95.8568 39.7415 95.694 39.7741 95.5312 39.8066C95.3359 39.8717 95.1569 39.9043 94.9941 39.9043C94.8639 39.9043 94.6686 39.8717 94.4082 39.8066C93.8223 39.6439 93.334 39.4486 92.9434 39.2207C92.5527 38.9928 92.1621 38.6673 91.7715 38.2441C91.5762 38.0488 91.3646 37.8698 91.1367 37.707C90.9089 37.5443 90.7298 37.3652 90.5996 37.1699C90.502 37.0072 90.388 36.7467 90.2578 36.3887C90.1276 36.0306 90.0137 35.6562 89.916 35.2656C89.8184 34.8424 89.737 34.4355 89.6719 34.0449C89.6068 33.6543 89.5742 33.3613 89.5742 33.166C89.6393 33.0358 89.7207 32.8079 89.8184 32.4824C89.8835 32.1569 89.9648 31.8151 90.0625 31.457C90.1276 31.0664 90.1927 30.7083 90.2578 30.3828C90.2904 30.0573 90.3066 29.8294 90.3066 29.6992C90.3392 29.6667 90.4206 29.5365 90.5508 29.3086C90.681 29.0482 90.8275 28.7715 90.9902 28.4785C91.1204 28.1855 91.2344 27.9251 91.332 27.6973C91.4297 27.4368 91.4785 27.2741 91.4785 27.209ZM122.143 11.0469C122.566 11.112 122.924 11.1608 123.217 11.1934C123.51 11.2259 123.77 11.2585 123.998 11.291C124.258 11.291 124.519 11.291 124.779 11.291C125.04 11.2585 125.365 11.2096 125.756 11.1445C126.472 11.0469 127.107 10.9655 127.66 10.9004C128.246 10.8027 128.881 10.7214 129.564 10.6562C129.76 10.6237 129.955 10.6237 130.15 10.6562C130.378 10.6888 130.59 10.7051 130.785 10.7051C131.208 10.7051 131.615 10.6888 132.006 10.6562C132.429 10.6237 132.82 10.5911 133.178 10.5586C133.308 10.526 133.422 10.4935 133.52 10.4609C133.617 10.4284 133.715 10.4284 133.812 10.4609C134.105 10.4609 134.398 10.4609 134.691 10.4609C134.984 10.4284 135.245 10.526 135.473 10.7539C135.57 11.0794 135.603 11.2585 135.57 11.291C135.538 11.3236 135.505 11.3724 135.473 11.4375C135.44 11.8607 135.375 12.0723 135.277 12.0723C135.212 12.0723 135.18 12.1048 135.18 12.1699C134.919 12.235 134.691 12.3001 134.496 12.3652C134.333 12.3978 134.203 12.4954 134.105 12.6582C133.552 12.7884 133.031 12.821 132.543 12.7559C132.087 12.6582 131.615 12.7233 131.127 12.9512C130.899 13.0488 130.655 13.179 130.395 13.3418C130.167 13.472 129.874 13.472 129.516 13.3418C129.19 13.3418 128.816 13.3581 128.393 13.3906C127.969 13.4232 127.562 13.4557 127.172 13.4883C126.423 13.5534 125.772 13.6185 125.219 13.6836C124.698 13.7161 124.193 13.7487 123.705 13.7812C123.217 13.7812 122.712 13.7975 122.191 13.8301C121.703 13.8626 121.101 13.8789 120.385 13.8789C120.124 14.1068 119.945 14.3835 119.848 14.709C119.783 15.0345 119.62 15.2949 119.359 15.4902C119.099 16.1087 118.887 16.5319 118.725 16.7598C118.562 16.9551 118.448 17.1992 118.383 17.4922C117.927 18.0781 117.504 18.6966 117.113 19.3477C116.755 19.9661 116.332 20.5521 115.844 21.1055C115.779 21.4635 115.648 21.7891 115.453 22.082C115.29 22.3424 115.176 22.7005 115.111 23.1562C114.753 23.6445 114.493 24.1816 114.33 24.7676C114.167 25.3535 113.956 25.972 113.695 26.623C113.63 26.8835 113.549 27.1439 113.451 27.4043C113.386 27.6322 113.305 27.8763 113.207 28.1367C113.077 28.4622 112.914 28.7715 112.719 29.0645C112.556 29.3249 112.393 29.6178 112.23 29.9434C112.165 30.0085 112.133 30.1061 112.133 30.2363C112.133 30.334 112.117 30.4154 112.084 30.4805C111.986 30.7083 111.889 30.9199 111.791 31.1152C111.693 31.278 111.612 31.4408 111.547 31.6035C111.482 31.7663 111.433 31.9453 111.4 32.1406C111.4 32.3034 111.368 32.4661 111.303 32.6289C111.27 32.7266 111.238 32.8242 111.205 32.9219C111.173 32.987 111.14 33.0684 111.107 33.166C111.01 33.6217 111.01 33.931 111.107 34.0938C111.205 34.2565 111.286 34.4193 111.352 34.582C111.417 34.7773 111.482 34.9564 111.547 35.1191C111.612 35.2493 111.661 35.3958 111.693 35.5586C111.856 35.6237 112.003 35.6888 112.133 35.7539C112.296 35.819 112.458 35.8516 112.621 35.8516C112.816 35.8841 113.028 35.8027 113.256 35.6074C113.484 35.3796 113.679 35.2493 113.842 35.2168C114.07 35.1517 114.281 35.1191 114.477 35.1191C114.704 35.1191 114.9 35.0703 115.062 34.9727C115.258 34.8099 115.421 34.6471 115.551 34.4844C115.681 34.3216 115.86 34.2077 116.088 34.1426C116.609 34.0124 116.885 33.9147 116.918 33.8496C116.951 33.752 117.064 33.6217 117.26 33.459C117.488 33.2962 117.683 33.1497 117.846 33.0195C118.041 32.8568 118.269 32.694 118.529 32.5312C118.855 32.3685 119.034 32.2708 119.066 32.2383C119.132 32.2057 119.278 32.0918 119.506 31.8965C119.831 31.7337 120.108 31.5547 120.336 31.3594C120.564 31.1641 120.824 30.985 121.117 30.8223C121.443 30.6921 121.638 30.6107 121.703 30.5781C121.768 30.513 121.801 30.4642 121.801 30.4316C121.833 30.3991 121.866 30.3503 121.898 30.2852C121.964 30.2201 122.126 30.1061 122.387 29.9434C122.517 29.6829 122.663 29.4714 122.826 29.3086C122.989 29.1458 123.184 28.9342 123.412 28.6738C123.607 28.446 123.803 28.2507 123.998 28.0879C124.226 27.9251 124.421 27.7624 124.584 27.5996C124.682 27.5345 124.763 27.4694 124.828 27.4043C124.893 27.3066 125.007 27.2415 125.17 27.209C125.365 27.0462 125.512 26.916 125.609 26.8184C125.74 26.6882 125.935 26.5091 126.195 26.2812C126.26 26.2161 126.342 26.1348 126.439 26.0371C126.537 25.9395 126.618 25.8743 126.684 25.8418C126.814 25.8418 126.911 25.8906 126.977 25.9883C127.074 26.0859 127.188 26.1348 127.318 26.1348C127.286 26.5579 127.27 26.8346 127.27 26.9648C127.27 27.0625 127.237 27.1764 127.172 27.3066C126.977 27.5996 126.749 27.7624 126.488 27.7949C126.26 27.8275 126.081 28.0065 125.951 28.332C125.854 28.2669 125.723 28.2507 125.561 28.2832C125.43 28.3158 125.333 28.3646 125.268 28.4297C125.333 28.5599 125.365 28.6738 125.365 28.7715C125.365 28.8691 125.382 28.9831 125.414 29.1133C124.828 29.6992 124.438 30.1712 124.242 30.5293C123.852 30.9525 123.64 31.1966 123.607 31.2617C123.575 31.2943 123.559 31.3105 123.559 31.3105C123.559 31.3105 123.542 31.3268 123.51 31.3594C123.477 31.3919 123.363 31.5059 123.168 31.7012C122.712 32.0592 122.37 32.401 122.143 32.7266C121.915 33.0521 121.573 33.3451 121.117 33.6055C120.759 33.8659 120.515 34.0612 120.385 34.1914C120.255 34.3216 120.059 34.5007 119.799 34.7285C119.669 34.8587 119.538 35.0052 119.408 35.168C119.311 35.2982 119.18 35.4284 119.018 35.5586C118.79 35.7214 118.562 35.8678 118.334 35.998C118.139 36.1283 117.96 36.291 117.797 36.4863C117.309 36.7142 116.951 36.9746 116.723 37.2676C116.527 37.5605 116.218 37.8372 115.795 38.0977C115.502 38.293 115.095 38.5371 114.574 38.8301C114.086 39.123 113.663 39.3346 113.305 39.4648C113.207 39.4974 113.109 39.5299 113.012 39.5625C112.947 39.5951 112.865 39.6276 112.768 39.6602C112.507 39.4974 112.247 39.3346 111.986 39.1719C111.758 39.0091 111.563 38.7812 111.4 38.4883C111.107 38.2604 110.863 38.0977 110.668 38C110.505 37.9023 110.342 37.7721 110.18 37.6094C109.854 37.056 109.48 36.5026 109.057 35.9492C108.666 35.3958 108.357 34.7773 108.129 34.0938C108.064 33.9635 108.015 33.8333 107.982 33.7031C107.982 33.5404 107.966 33.3776 107.934 33.2148C107.868 32.9544 107.803 32.7266 107.738 32.5312C107.673 32.3359 107.657 32.0918 107.689 31.7988C107.689 31.6035 107.722 31.3919 107.787 31.1641C107.852 30.9362 107.917 30.6921 107.982 30.4316C108.113 30.0085 108.259 29.6016 108.422 29.2109C108.617 28.8203 108.764 28.3971 108.861 27.9414C108.959 27.5833 109.057 27.2578 109.154 26.9648C109.252 26.6719 109.366 26.3464 109.496 25.9883C109.561 25.8255 109.594 25.679 109.594 25.5488C109.626 25.3861 109.724 25.2721 109.887 25.207C110.017 24.556 110.229 23.9375 110.521 23.3516C110.814 22.7331 111.107 22.1471 111.4 21.5938C111.758 20.9102 112.084 20.2103 112.377 19.4941C112.702 18.778 113.044 18.0781 113.402 17.3945C113.435 17.0039 113.565 16.6784 113.793 16.418C113.826 16.0599 113.956 15.7181 114.184 15.3926C114.411 15.0345 114.574 14.6764 114.672 14.3184C114.314 14.2207 113.907 14.2207 113.451 14.3184C113.028 14.3835 112.654 14.4486 112.328 14.5137C111.742 14.5462 111.124 14.5462 110.473 14.5137C110.245 14.4811 110.017 14.4486 109.789 14.416C109.594 14.3509 109.398 14.3184 109.203 14.3184C108.91 14.3509 108.682 14.3346 108.52 14.2695C108.389 14.1719 108.243 14.1556 108.08 14.2207C107.657 13.8626 107.348 13.6185 107.152 13.4883C106.957 13.3581 106.778 13.2441 106.615 13.1465C106.42 13.0163 106.257 12.8861 106.127 12.7559C105.964 12.5931 105.834 12.3652 105.736 12.0723C105.736 11.9746 105.785 11.8932 105.883 11.8281C105.98 11.763 106.062 11.6979 106.127 11.6328C106.387 11.5677 106.68 11.5514 107.006 11.584C107.331 11.584 107.592 11.5189 107.787 11.3887C108.308 11.4538 108.78 11.4212 109.203 11.291C109.659 11.1608 110.131 11.112 110.619 11.1445C110.717 11.1445 110.814 11.1608 110.912 11.1934C111.01 11.2259 111.107 11.2422 111.205 11.2422C111.368 11.2747 111.498 11.2747 111.596 11.2422C111.726 11.2096 111.872 11.1771 112.035 11.1445C112.23 11.112 112.442 11.112 112.67 11.1445C112.898 11.1771 113.126 11.1771 113.354 11.1445C113.777 11.112 114.281 11.1608 114.867 11.291C115.486 11.3887 116.023 11.3561 116.479 11.1934C116.641 10.7376 116.82 10.2819 117.016 9.82617C117.243 9.33789 117.423 8.86589 117.553 8.41016C117.683 8.21484 117.813 8.00326 117.943 7.77539C118.074 7.51497 118.171 7.27083 118.236 7.04297C118.432 6.71745 118.578 6.45703 118.676 6.26172C118.806 6.06641 118.952 5.87109 119.115 5.67578C119.343 5.22005 119.506 4.7806 119.604 4.35742C119.734 3.90169 119.896 3.41341 120.092 2.89258C120.515 2.43685 120.938 1.88346 121.361 1.23242C121.589 1.26497 121.768 1.19987 121.898 1.03711C122.061 0.874349 122.289 0.890625 122.582 1.08594C122.582 1.18359 122.615 1.28125 122.68 1.37891C122.777 1.44401 122.794 1.55794 122.729 1.7207C122.891 1.88346 123.021 2.02995 123.119 2.16016C123.217 2.29036 123.298 2.43685 123.363 2.59961C123.428 2.86003 123.396 3.16927 123.266 3.52734C123.168 3.85286 123.201 4.16211 123.363 4.45508C123.428 4.61784 123.445 4.7806 123.412 4.94336C123.38 5.07357 123.396 5.20378 123.461 5.33398C123.526 5.49674 123.607 5.65951 123.705 5.82227C123.835 5.98503 123.9 6.19661 123.9 6.45703C123.9 6.55469 123.868 6.6849 123.803 6.84766C123.77 6.97786 123.721 7.12435 123.656 7.28711C123.526 7.77539 123.428 8.11719 123.363 8.3125C123.298 8.50781 123.233 8.7194 123.168 8.94727C122.94 9.20768 122.826 9.38672 122.826 9.48438C122.826 9.54948 122.81 9.61458 122.777 9.67969C122.68 9.875 122.566 10.1191 122.436 10.4121C122.338 10.6725 122.24 10.8841 122.143 11.0469Z" fill="white"/>
</svg>
