<svg width="606" height="747" viewBox="0 0 606 747" fill="none" xmlns="http://www.w3.org/2000/svg">
<path fill-rule="evenodd" clip-rule="evenodd" d="M-74.0008 141.892C-9.10029 123.641 65.1441 185.655 136.85 215.001C200.32 240.976 266.019 250.854 320.949 303.528C380.173 360.318 428.564 435.358 451.074 516.312C474.164 599.352 465.662 679.817 445.663 752.044C424.763 827.532 398.563 908.577 335.248 934.636C273.067 960.228 194.739 917.933 123.147 884.785C60.62 855.834 3.57753 812.712 -48.5334 756.938C-103.093 698.544 -155.253 635.269 -181.988 558.205C-211.136 474.182 -222.697 385.261 -203.349 310.672C-183.207 233.02 -141.684 160.926 -74.0008 141.892Z" fill="#C8C6FF"/>
</svg>
