<svg width="491" height="508" viewBox="0 0 491 508" fill="none" xmlns="http://www.w3.org/2000/svg">
<path fill-rule="evenodd" clip-rule="evenodd" d="M717.238 992.171C628.292 989.933 548.289 962.074 462.246 939.425C347.18 909.136 198.841 933.961 129.301 837.41C60.2431 741.527 91.8814 599.758 139.818 491.755C181.884 396.979 294.502 365.111 370.323 294.377C441.701 227.788 478.6 124.012 570.194 90.2551C670.384 53.3306 783.905 64.2306 882.306 105.687C985.227 149.049 1077.89 223.095 1125.4 324.168C1172.05 423.392 1151.21 536.325 1135.77 644.872C1120.14 754.731 1121.2 882.994 1035.81 953.854C951.434 1023.87 826.841 994.928 717.238 992.171Z" fill="#F5CDFF"/>
</svg>
