<svg width="934" height="378" viewBox="0 0 934 378" fill="none" xmlns="http://www.w3.org/2000/svg">
<path fill-rule="evenodd" clip-rule="evenodd" d="M910.452 13.1325C901.481 79.9509 815.116 123.53 759.749 177.728C710.742 225.7 675.629 282.101 605.496 311.651C529.881 343.51 441.807 358.189 358.561 346.764C273.171 335.044 202.669 295.341 144.287 248.35C83.2694 199.237 19.2497 143.056 20.4245 74.5988C21.5783 7.36709 91.4586 -47.7779 150.271 -100.364C201.637 -146.292 263.839 -181.567 335.7 -207.299C410.939 -234.24 489.706 -257.044 571.055 -251.039C659.748 -244.492 745.967 -219.856 806.776 -172.525C870.081 -123.251 919.808 -56.5507 910.452 13.1325Z" fill="#F5CDFF"/>
</svg>
