<svg width="795" height="417" viewBox="0 0 795 417" fill="none" xmlns="http://www.w3.org/2000/svg">
<path fill-rule="evenodd" clip-rule="evenodd" d="M717.988 992.702C629.042 990.465 549.039 962.605 462.996 939.956C347.929 909.668 199.59 934.492 130.051 837.942C60.9928 742.059 92.6311 600.29 140.568 492.287C182.633 397.51 295.251 365.642 371.072 294.909C442.45 228.32 479.35 124.543 570.944 90.7866C671.133 53.8621 784.654 64.7621 883.055 106.219C985.977 149.58 1078.64 223.627 1126.15 324.699C1172.8 423.923 1151.96 536.857 1136.52 645.404C1120.89 755.262 1121.95 883.525 1036.56 954.385C952.184 1024.4 827.591 995.46 717.988 992.702Z" fill="#F5CDFF"/>
</svg>
